<?xml version="1.0" encoding="UTF-8"?>
<svg width="80px" height="80px" viewBox="0 0 80 80" version="1.1" xmlns="http://www.w3.org/2000/svg" xmlns:xlink="http://www.w3.org/1999/xlink">
    <title>CNI</title>
    <g id="CNI" stroke="none" stroke-width="1" fill="none" fill-rule="evenodd">
        <path d="M67.2424242,16 C69.8130152,16 71.8852598,18.1319801 71.9953953,20.778316 L72,21 L72,59 C72,61.6736631 69.9972308,63.8779044 67.4554552,63.9950995 L67.2424242,64 L39.9669607,64 C39.4146759,64 38.9669607,63.5522847 38.9669607,63 C38.9669607,62.4871642 39.3530009,62.0644928 39.8503396,62.0067277 L39.9669607,62 L67.2424242,62 C68.6970563,62 69.9104499,60.7636258 69.9952655,59.177617 L70,59 L70,21 C70,19.3893087 68.8385575,18.0954098 67.4030122,18.0050429 L67.2424242,18 L64.5389145,18 C63.9866298,18 63.5389145,17.5522847 63.5389145,17 C63.5389145,16.4871642 63.9249547,16.0644928 64.4222934,16.0067277 L64.5389145,16 L67.2424242,16 Z M58.370372,16 C58.9226567,16 59.370372,16.4477153 59.370372,17 C59.370372,17.5128358 58.9843318,17.9355072 58.4869931,17.9932723 L58.370372,18 L12.7575758,18 C11.3029437,18 10.0895501,19.2363742 10.0047345,20.822383 L10,21 L10,59 C10,60.6106913 11.1614425,61.9045902 12.5969878,61.9949571 L12.7575758,62 L15.7136221,62 C16.2659069,62 16.7136221,62.4477153 16.7136221,63 C16.7136221,63.5128358 16.3275819,63.9355072 15.8302432,63.9932723 L15.7136221,64 L12.7575758,64 C10.1869848,64 8.11474018,61.8680199 8.00460467,59.221684 L8,59 L8,21 C8,18.3263369 10.0027692,16.1220956 12.5445448,16.0049005 L12.7575758,16 L58.370372,16 Z M39,56 C39.5522847,56 40,56.4477153 40,57 C40,57.5522847 39.5522847,58 39,58 L13,58 C12.4477153,58 12,57.5522847 12,57 C12,56.4477153 12.4477153,56 13,56 L39,56 Z M61,48 C61.5522847,48 62,48.4477153 62,49 C62,49.5522847 61.5522847,50 61,50 L47,50 C46.4477153,50 46,49.5522847 46,49 C46,48.4477153 46.4477153,48 47,48 L61,48 Z M28,28 C30.7793455,28 33.0526316,30.1596218 33.0526316,32.85 C33.0526316,34.2597273 32.4284691,35.5237281 31.4343921,36.40766 C33.9593474,37.5029378 35.767409,39.7749851 35.9797059,42.4870453 L35.9955838,42.7596908 L35.9998169,42.9808642 C36.0098145,43.5032235 35.6178229,43.9382926 35.1103966,43.9939802 L35,44 L21,44 C20.4477153,44 20,43.5522847 20,43 C20,40.0760525 21.8723729,37.5745441 24.5642322,36.4056236 C23.5711045,35.5228644 22.9473684,34.2592457 22.9473684,32.85 C22.9473684,30.1596218 25.2206545,28 28,28 Z M28,37.7 C25.2166182,37.7 22.9008464,39.3693354 22.2101569,41.6081902 L22.1502011,41.8197178 L22.107,42 L33.892,42 L33.8477799,41.810477 C33.2727778,39.6032305 31.13089,37.9074788 28.4939191,37.717696 L28.2372189,37.7040646 L28,37.7 Z M28,30 C26.3029322,30 24.9473684,31.2877856 24.9473684,32.85 C24.9473684,34.4122144 26.3029322,35.7 28,35.7 C29.6970678,35.7 31.0526316,34.4122144 31.0526316,32.85 C31.0526316,31.2877856 29.6970678,30 28,30 Z M63,32 C63.5522847,32 64,32.4477153 64,33 C64,33.5522847 63.5522847,34 63,34 L47,34 C46.4477153,34 46,33.5522847 46,33 C46,32.4477153 46.4477153,32 47,32 L63,32 Z M55,28 C55.5522847,28 56,28.4477153 56,29 C56,29.5522847 55.5522847,30 55,30 L47,30 C46.4477153,30 46,29.5522847 46,29 C46,28.4477153 46.4477153,28 47,28 L55,28 Z M65,24 C65.5522847,24 66,24.4477153 66,25 C66,25.5522847 65.5522847,26 65,26 L47,26 C46.4477153,26 46,25.5522847 46,25 C46,24.4477153 46.4477153,24 47,24 L65,24 Z" id="blue-france" fill="#000091" fill-rule="nonzero"></path>
        <path d="M43,56 C43.5522847,56 44,56.4477153 44,57 C44,57.5522847 43.5522847,58 43,58 C42.4477153,58 42,57.5522847 42,57 C42,56.4477153 42.4477153,56 43,56 Z M47,56 L49,56 C49.5522847,56 50,56.4477153 50,57 C50,57.5522847 49.5522847,58 49,58 L47,58 C46.4477153,58 46,57.5522847 46,57 C46,56.4477153 46.4477153,56 47,56 Z M53,56 L55,56 C55.5522847,56 56,56.4477153 56,57 C56,57.5522847 55.5522847,58 55,58 L53,58 C52.4477153,58 52,57.5522847 52,57 C52,56.4477153 52.4477153,56 53,56 Z M59,56 L61,56 C61.5522847,56 62,56.4477153 62,57 C62,57.5522847 61.5522847,58 61,58 L59,58 C58.4477153,58 58,57.5522847 58,57 C58,56.4477153 58.4477153,56 59,56 Z M39,22 L17,22 C15.3431458,22 14,23.3431458 14,25 L14,47 C14,48.6568542 15.3431458,50 17,50 L39,50 C40.6568542,50 42,48.6568542 42,47 L42,25 C42,23.3431458 40.6568542,22 39,22 Z M17,24 L39,24 C39.5522847,24 40,24.4477153 40,25 L40,47 C40,47.5522847 39.5522847,48 39,48 L17,48 C16.4477153,48 16,47.5522847 16,47 L16,25 C16,24.4477153 16.4477153,24 17,24 Z M58,28 C58.5522847,28 59,28.4477153 59,29 C59,29.5522847 58.5522847,30 58,30 C57.4477153,30 57,29.5522847 57,29 C57,28.4477153 57.4477153,28 58,28 Z M50,37 C52.209139,37 54,38.790861 54,41 C54,43.209139 52.209139,45 50,45 C47.790861,45 46,43.209139 46,41 C46,38.790861 47.790861,37 50,37 Z M50,39 C48.8954305,39 48,39.8954305 48,41 C48,42.1045695 48.8954305,43 50,43 C51.1045695,43 52,42.1045695 52,41 C52,39.8954305 51.1045695,39 50,39 Z" id="red-marianne" fill="#E1000F"></path>
    </g>
</svg>