<?xml version="1.0" encoding="UTF-8"?>
<svg width="80px" height="80px" viewBox="0 0 80 80" version="1.1" xmlns="http://www.w3.org/2000/svg" xmlns:xlink="http://www.w3.org/1999/xlink">
    <title>passeport</title>
    <g id="passeport" stroke="none" stroke-width="1" fill="none" fill-rule="evenodd">
        <path d="M50.0994268,8.0966893 C52.7881815,8.0966893 54.981245,10.218996 55.0948073,12.8797997 L55.0994268,13.0966893 L55.099,13.9996893 L59,14 C61.6887547,14 63.8818181,16.1223067 63.9953805,18.7831104 L64,19 L64,48.5555573 C64,49.107842 63.5522847,49.5555573 63,49.5555573 C62.4871642,49.5555573 62.0644928,49.1695171 62.0067277,48.6721784 L62,48.5555573 L62,19 C62,17.4023191 60.75108,16.0963391 59.1762728,16.0050927 L59,16 L55.099,15.9996893 L55.0994268,16.0737505 L53.0994268,16.0745324 L53.099,15.9996893 L21,16 C19.4023191,16 18.0963391,17.24892 18.0050927,18.8237272 L18,19 L18,67 C18,68.5976809 19.24892,69.9036609 20.8237272,69.9949073 L21,70 L59,70 C60.5976809,70 61.9036609,68.75108 61.9949073,67.1762728 L62,67 L62,64.1220703 C62,63.5697856 62.4477153,63.1220703 63,63.1220703 C63.5128358,63.1220703 63.9355072,63.5081105 63.9932723,64.0054492 L64,64.1220703 L64,67 C64,69.6887547 61.8776933,71.8818181 59.2168896,71.9953805 L59,72 L21,72 C18.3112453,72 16.1181819,69.8776933 16.0046195,67.2168896 L16,67 L16,19 C16,16.6149988 17.6698712,14.620017 19.9042243,14.1204437 L19.9033107,14.1161086 L49.9033107,8.11610862 L50.0994268,8.0966893 Z M49,60 C49.5522847,60 50,60.4477153 50,61 C50,61.5522847 49.5522847,62 49,62 L31,62 C30.4477153,62 30,61.5522847 30,61 C30,60.4477153 30.4477153,60 31,60 L49,60 Z M49,48 C49.5522847,48 50,48.4477153 50,49 C50,49.5522847 49.5522847,50 49,50 L31,50 C30.4477153,50 30,49.5522847 30,49 C30,48.4477153 30.4477153,48 31,48 L49,48 Z M50.1833484,10.0986109 L30.678,13.9996893 L53.099,13.9996893 L53.0994268,13.0966893 C53.0994268,11.4990084 51.8505069,10.1930284 50.2756996,10.101782 L50.1833484,10.0986109 Z" id="blue-france" fill="#000091" fill-rule="nonzero"></path>
        <path d="M31,52 L49,52 C49.5522847,52 50,52.4477153 50,53 C50,53.5522847 49.5522847,54 49,54 L31,54 C30.4477153,54 30,53.5522847 30,53 C30,52.4477153 30.4477153,52 31,52 Z M36,56 L44,56 C44.5522847,56 45,56.4477153 45,57 C45,57.5522847 44.5522847,58 44,58 L36,58 C35.4477153,58 35,57.5522847 35,57 C35,56.4477153 35.4477153,56 36,56 Z M40,24 C35.0373552,24 31,28.0373552 31,33 C31,37.9626448 35.0373552,42 40,42 C44.9626448,42 49,37.9626448 49,33 C49,28.0373552 44.9626448,24 40,24 Z M32.7190305,33.8182097 L35.9258265,33.8182097 C36.0164148,36.0469433 36.4767201,38.2634042 37.2757536,39.8274143 C34.8082381,38.8392268 33.02677,36.5537317 32.7190305,33.8182097 Z M35.9259032,32.181867 L32.7191072,32.181867 C33.0268467,29.446345 34.8083148,27.1609266 37.2758303,26.1726624 C36.4767968,27.7366725 36.0164915,29.9531334 35.9259032,32.181867 Z M40,40.363734 C39.0625911,40.363734 37.7441896,37.8288717 37.5782005,33.8182864 L42.4217995,33.8182864 C42.2558104,37.8288717 40.9374089,40.363734 40,40.363734 Z M37.5782005,32.181867 C37.7441896,28.1712817 39.0625911,25.6364194 40,25.6364194 C40.9374089,25.6364194 42.2558104,28.1712817 42.4217995,32.181867 L37.5782005,32.181867 Z M42.7242464,39.827491 C43.5232799,38.2634042 43.9835852,36.04702 44.0741735,33.8182864 L47.2809695,33.8182864 C46.97323,36.5537317 45.1917619,38.8392268 42.7242464,39.827491 Z M44.0741735,32.181867 C43.9835852,29.9531334 43.5232799,27.7366725 42.7242464,26.1726624 C45.1917619,27.1609266 46.9733067,29.4464217 47.2809695,32.181867 L44.0741735,32.181867 L44.0741735,32.181867 Z" id="red-marianne" fill="#E1000F"></path>
    </g>
</svg>