<?xml version="1.0" encoding="UTF-8"?>
<svg width="80px" height="80px" viewBox="0 0 80 80" version="1.1" xmlns="http://www.w3.org/2000/svg" xmlns:xlink="http://www.w3.org/1999/xlink">
    <title>Social</title>
    <g id="Social" stroke="none" stroke-width="1" fill="none" fill-rule="evenodd">
        <g id="Group" transform="translate(24.140242, 24.000000)" fill="#000091" fill-rule="nonzero">
            <path d="M15.6829062,0 C17.5766524,0 19.1237891,1.4840118 19.2248274,3.35254653 L19.230076,3.54716981 L19.2295725,3.7507705 C19.6972704,3.52362644 20.2223802,3.39622642 20.7772458,3.39622642 C22.670992,3.39622642 24.2181287,4.88023821 24.319167,6.74877295 L24.3244157,6.94339623 L24.3239085,7.14699691 C24.7916085,6.91985285 25.3167198,6.79245283 25.8715855,6.79245283 C27.7653317,6.79245283 29.3124683,8.27646463 29.4135066,10.1449994 L29.4187553,10.3396226 L29.4187553,29.1038301 C29.4187553,29.3338243 29.2974552,29.7365532 29.0803439,30.2583954 L28.9216886,30.6233481 L28.7363231,31.020063 L28.5259256,31.4450095 L28.2921746,31.8946568 C28.2513632,31.9714603 28.2096486,32.0491459 28.1670659,32.12764 L27.9014312,32.6077188 L27.6166386,33.1036719 L27.3143663,33.6119686 L26.9962928,34.1290784 L26.6640962,34.6514706 L26.3194548,35.1756145 C26.2610707,35.2629217 26.2022381,35.3501547 26.1429918,35.4372401 L25.7828301,35.9573918 L25.4144193,36.4704686 C25.3524234,36.5551957 25.2901536,36.6394809 25.227645,36.7232506 L24.8500075,37.2190953 L24.4683166,37.6990386 L24.0842508,38.1595498 C24.0454113,38.2049441 24.0033867,38.2460028 23.9587892,38.2826782 L23.9578713,43.1509434 C23.9578713,43.6198644 23.5777357,44 23.1088147,44 C22.6398937,44 22.2597581,43.6198644 22.2597581,43.1509434 L22.2597581,37.509434 C22.2597581,37.246893 22.3789189,37.0121835 22.5661067,36.8564392 C23.9548367,35.2344301 25.1949915,33.379786 26.2104565,31.5211498 C26.5394136,30.9190498 26.8276412,30.3460436 27.0556514,29.8504768 L27.2350554,29.4476128 L27.3506522,29.1674625 L27.4048696,29.0262945 C27.4102669,29.0163157 27.4153789,29.0168753 27.4175976,29.0538114 L27.4187553,10.3396226 C27.4187553,9.48514435 26.7260638,8.79245283 25.8715855,8.79245283 C25.0645782,8.79245283 24.4018807,9.41031656 24.3307384,10.1987987 L24.3244157,10.3396226 L24.3244157,22.2264151 C24.3244157,22.7786998 23.8767004,23.2264151 23.3244157,23.2264151 C22.8115798,23.2264151 22.3889085,22.8403749 22.3311434,22.3430362 L22.3243971,22.2264151 L22.3244157,6.94339623 C22.3244157,6.08891793 21.6317241,5.39622642 20.7772458,5.39622642 C19.9702386,5.39622642 19.3075411,6.01409015 19.2363988,6.80257224 L19.230076,6.94339623 L19.230076,18.8301887 C19.230076,19.3430245 18.8440358,19.7656958 18.3466972,19.8234609 L18.230076,19.8301887 C17.7172402,19.8301887 17.2945689,19.4441485 17.2368038,18.9468098 L17.230076,18.8301887 L17.230076,3.54716981 C17.230076,2.69269152 16.5373845,2 15.6829062,2 C14.8758989,2 14.2132015,2.61786373 14.1420592,3.40634582 L14.1357364,3.54716981 L14.1357364,21.3773585 C14.1357364,21.9296432 13.6880212,22.3773585 13.1357364,22.3773585 C12.6229006,22.3773585 12.2002292,21.9913183 12.1424641,21.4939796 L12.1357364,21.3773585 L12.1357364,8.64150943 C12.1357364,7.78703114 11.4430449,7.09433962 10.5885666,7.09433962 C9.78155932,7.09433962 9.11886185,7.71220335 9.04771956,8.50068544 L9.04139678,8.64150943 L9.04139678,26.4716981 C9.04139678,27.0239829 8.59368153,27.4716981 8.04139678,27.4716981 C7.52856094,27.4716981 7.10588962,27.0856579 7.04812451,26.5883192 L7.04139678,26.4716981 L7.04102997,25.067131 C6.92399845,25.0146849 6.81517874,24.938712 6.72185431,24.8394372 L6.33859309,24.4293321 L5.61549225,23.6413895 L5.09003111,23.0565715 L4.02069973,21.8476679 L3.711599,21.5105454 L3.55189808,21.3466313 L3.42094706,21.2231731 C3.40112043,21.205577 3.38219374,21.1893733 3.36401801,21.1744154 L3.26278333,21.0984439 L3.17242052,21.0453323 L3.08577836,21.0080421 C2.93889456,20.9545807 2.48038098,21.0691303 2.2523231,21.3419416 C1.86842273,21.8011773 1.85681018,22.7456563 2.5453624,24.3250044 L3.93619691,27.4286396 L4.70865932,29.1357571 L5.57743735,31.0347696 L6.47789999,32.9688937 L6.86997407,33.7948716 C6.95314286,33.9687016 7.0941453,34.1749175 7.2921708,34.4119764 L7.50917397,34.6592593 C7.5484991,34.7021675 7.5894007,34.7459182 7.63187502,34.7905043 L7.90556351,35.0679873 C7.95431368,35.1158861 8.00462906,35.1646059 8.0565059,35.2141396 L8.3864744,35.5210513 L8.75373775,35.8471537 L9.15811582,36.1921038 C9.22859505,36.2511471 9.30061323,36.3109614 9.37416659,36.3715396 L9.83387899,36.7441184 L10.3302558,37.1346878 L10.8631168,37.5429049 L11.432282,37.9684268 L12.0375712,38.4109108 L12.0795204,38.4434773 C12.3626902,38.5811186 12.5578713,38.8715394 12.5578713,39.2075472 L12.5578713,43.1509434 C12.5578713,43.6198644 12.1777357,44 11.7088147,44 C11.2398937,44 10.8597581,43.6198644 10.8597581,43.1509434 L10.859,40.027 L10.2033605,39.5474042 L9.58089566,39.0816315 C9.48043949,39.0055031 9.38162481,38.9301201 9.28444787,38.8554753 L8.72100902,38.4164092 C8.539727,38.2729689 8.3649659,38.1324245 8.1966957,37.994719 L7.71132779,37.5900617 L7.26472514,37.2020946 C6.12531164,36.1894644 5.39747294,35.351205 5.06583784,34.658059 L4.53006232,33.5266195 L3.25336639,30.7652972 L2.1167588,28.2591181 L0.827045541,25.3808264 C-0.250878139,23.0424448 -0.262322419,21.2317315 0.717860723,20.0592003 C1.49547166,19.1289934 2.84466254,18.7919275 3.76981864,19.1286568 C4.16381999,19.2720616 4.44333006,19.4378687 4.81128424,19.7820809 L5.04429352,20.0112649 C5.08543845,20.0534463 5.12787368,20.0977238 5.17180217,20.1442534 L5.45491551,20.4517034 L6.75720525,21.9207628 L7.041,22.236 L7.04139678,8.64150943 C7.04139678,6.68246164 8.6295188,5.09433962 10.5885666,5.09433962 C11.1434323,5.09433962 11.668542,5.22173964 12.13624,5.4488837 L12.1357364,3.54716981 C12.1357364,1.58812202 13.7238584,0 15.6829062,0 Z" id="blue-france"></path>
        </g>
        <g id="Group" transform="translate(21.871260, 21.916059) rotate(120.000000) translate(-21.871260, -21.916059) translate(7.140503, 9.059458)" fill="#E1000F" fill-rule="nonzero">
            <path d="M3.76981864,0.127497833 C4.24262026,0.299583547 4.55055443,0.503928686 5.04429352,1.01010593 L5.30827029,1.28959524 L6.75720525,2.91960377 L6.922,3.102 L6.91692174,2.94998991 C6.90806984,2.66454323 6.90357832,2.40109141 6.90357832,2.13351336 C6.90357832,1.58122861 7.35129357,1.13351336 7.90357832,1.13351336 C8.45586307,1.13351336 8.90357832,1.58122861 8.90357832,2.13351336 L8.90495754,2.37931297 L8.91596077,2.88799833 L8.98815605,4.61736829 L9.01445941,5.39416684 L9.03184569,6.17876037 L9.04046628,7.0172382 C9.04118098,7.16403538 9.04153676,7.31499813 9.04153676,7.47108665 C9.04153676,8.02337139 8.59382151,8.47108665 8.04153676,8.47108665 C7.48925201,8.47108665 7.04153676,8.02337139 7.04153676,7.47108665 L7.03737055,6.61129511 L7.02824231,6.0601324 C6.9160716,6.00794629 6.81177083,5.9339278 6.72185431,5.8382782 C6.3293422,5.42073949 5.96659674,5.02755754 5.61549225,4.64023049 L4.91114647,3.85407772 L4.02069973,2.84650894 L3.711599,2.50938643 L3.55189808,2.34547231 L3.42094706,2.22201407 L3.31159474,2.13197329 C3.29477195,2.11936026 3.27855114,2.10784635 3.26278333,2.09728494 L3.17242052,2.04417331 L3.08577836,2.00688307 C2.93889456,1.95342174 2.48038098,2.06797136 2.2523231,2.34078259 C1.86842273,2.80001836 1.85681018,3.74449736 2.5453624,5.32384545 L3.73233069,7.97461275 L5.41228934,11.674693 L6.1949736,13.3648215 L6.74359223,14.5288405 L6.89141374,14.8363962 L6.94191753,14.9242472 L7.00381324,15.0164427 L7.1212349,15.1655924 L7.21804688,15.2740701 L7.33139997,15.3912291 L7.5356624,15.5859554 L7.8796373,15.8875396 L8.3162581,16.2461523 L9.01024756,16.7897157 L9.89037358,17.4572352 L12.110883,19.1057772 L12.1673694,19.1561913 L12.2194491,19.2107207 L12.2675107,19.2716209 L12.3119428,19.3411473 L12.3531342,19.4215552 L12.3914734,19.5151001 L12.4273491,19.6240373 L12.46115,19.7506224 L12.5088113,19.9785231 L12.5539905,20.258818 L12.6126356,20.7272029 L12.7035035,21.66927 L12.7885655,22.7126228 L12.9341579,24.6388516 C12.9751946,25.1896096 12.5619839,25.6693541 12.0112258,25.7103909 C11.4604678,25.7514276 10.9807233,25.3382169 10.9396865,24.7874588 L10.7875671,22.8513368 L10.7194859,22.0691962 L10.6169774,21.0331549 L10.5614548,20.5713738 L10.5407708,20.4305391 L8.55556735,18.9592267 L7.61272725,18.2438558 L7.00278278,17.7652809 L6.61967847,17.4521667 L6.29327975,17.1719999 L6.10406082,17.0007154 L5.85811844,16.7628122 L5.71668169,16.6144331 L5.5910788,16.4722649 L5.47943603,16.334621 L5.37987966,16.1998149 L5.29053598,16.0661603 L5.20953125,15.9319705 L5.09956091,15.7259932 L4.67042441,14.8239137 L3.7641441,12.877431 L2.31683537,9.70151875 L0.827045541,6.37966743 C-0.250878139,4.04128581 -0.262322419,2.23057248 0.717860723,1.0580413 C1.49547166,0.12783446 2.84466254,-0.20923145 3.76981864,0.127497833 Z M28.4188952,3.93492749 C28.9317311,3.93492749 29.3544024,4.32096768 29.4121675,4.81830637 L29.4188952,4.93492749 L29.4188952,10.1032186 C29.4188952,10.3079419 29.3190239,10.6564644 29.1387049,11.1078021 L28.9886852,11.4649428 C28.9612691,11.5274658 28.9326718,11.5914351 28.9029314,11.6567708 L28.7110743,12.0645409 L28.4936017,12.5012611 C28.4553228,12.5762469 28.4160525,12.6522788 28.3758286,12.7292768 L28.1233472,13.202218 L27.8498028,13.6945036 L27.5570164,14.2022916 L27.2468089,14.7217395 C27.193757,14.8090724 27.1400552,14.896731 27.0857413,14.9846353 L26.7528166,15.5143691 L26.4070232,16.0461573 L26.0501822,16.5761578 L25.6841146,17.1005282 L25.3106413,17.6154263 L24.9315832,18.1170098 L24.5215714,18.6341457 L24.3703299,19.8268401 L24.0856592,22.2218839 L24.0106972,22.7817036 L23.9677885,23.0458709 L23.9426129,23.1642851 L23.9112655,23.2839784 L23.8910173,23.3329548 C23.8862229,23.3424934 23.880529,23.3530727 23.8736506,23.3652216 L23.7160426,23.6202018 C23.3569935,24.0398471 22.725737,24.0889701 22.3060916,23.7299211 C22.0155679,23.4813486 21.9026319,23.1023099 21.9797762,22.7533437 L22.0035714,22.6651457 L22.0566658,22.3148593 L22.4982995,18.6693575 L22.5547817,18.2689692 L22.5921468,18.0573498 L22.6345286,17.8848378 L22.6539173,17.8368198 L22.6940977,17.7639262 L22.8220494,17.5532497 C24.14337,15.960519 25.3199865,14.1689203 26.2798614,12.3930812 C26.6436679,11.7200124 26.9542387,11.0876943 27.182032,10.5694453 L27.3071642,10.2754451 L27.4069711,10.0203956 C27.4115318,10.0128077 27.4159588,10.0153916 27.4178872,10.0530063 L27.4188952,4.93492749 C27.4188952,4.38264274 27.8666105,3.93492749 28.4188952,3.93492749 Z M22.9585302,0.198630543 C23.4713661,0.198630543 23.8940374,0.584670733 23.9518025,1.08200942 L23.9585302,1.19863054 L23.9585302,4.59182903 C23.9585302,5.14411378 23.510815,5.59182903 22.9585302,5.59182903 C22.4456944,5.59182903 22.0230231,5.20578884 21.965258,4.70845016 L21.9585302,4.59182903 L21.9585302,1.19863054 C21.9585302,0.646345793 22.4062455,0.198630543 22.9585302,0.198630543 Z M28.4615143,0.739036683 C29.0137991,0.739036683 29.4615143,1.18675193 29.4615143,1.73903668 C29.4615143,2.29132143 29.0137991,2.73903668 28.4615143,2.73903668 C27.9092296,2.73903668 27.4615143,2.29132143 27.4615143,1.73903668 C27.4615143,1.18675193 27.9092296,0.739036683 28.4615143,0.739036683 Z" id="red-marianne"></path>
        </g>
        <g id="Group" transform="translate(62.945429, 30.726478) scale(-1, -1) rotate(60.000000) translate(-62.945429, -30.726478) translate(48.235972, 17.832444)" fill="#E1000F" fill-rule="nonzero">
            <path d="M3.76981864,0.127497833 C4.16381999,0.270902594 4.44333006,0.436709735 4.81128424,0.78092196 L5.04429352,1.01010593 C5.08543845,1.05228736 5.12787368,1.09656486 5.17180217,1.14309441 L5.45491551,1.45054445 L6.75720525,2.91960377 L6.922,3.102 L6.91693943,2.94999816 L6.90508833,2.4006917 C6.90409507,2.3114485 6.90359602,2.22271429 6.90359602,2.13352161 C6.90359602,1.58123686 7.35131127,1.13352161 7.90359602,1.13352161 C8.45588077,1.13352161 8.90359602,1.58123686 8.90359602,2.13352161 L8.90497523,2.37932122 L8.91597846,2.88800659 L8.98817374,4.61737654 L9.0144771,5.39417509 L9.03186338,6.17876862 L9.04048397,7.01724645 C9.04119868,7.16404363 9.04155445,7.31500638 9.04155445,7.4710949 C9.04155445,8.02337965 8.5938392,8.4710949 8.04155445,8.4710949 C7.4892697,8.4710949 7.04155445,8.02337965 7.04155445,7.4710949 L7.03738825,6.61130336 L7.02824231,6.0601324 C6.9160716,6.00794629 6.81177083,5.9339278 6.72185431,5.8382782 L6.33859309,5.42817316 L5.61549225,4.64023049 L5.09003111,4.05541255 L4.02069973,2.84650894 L3.711599,2.50938643 L3.55189808,2.34547231 L3.42094706,2.22201407 C3.40112043,2.204418 3.38219374,2.18821432 3.36401801,2.1732564 L3.26278333,2.09728494 L3.17242052,2.04417331 L3.08577836,2.00688307 C2.93889456,1.95342174 2.48038098,2.06797136 2.2523231,2.34078259 C1.86842273,2.80001836 1.85681018,3.74449736 2.5453624,5.32384545 L3.93619691,8.42748058 L4.70865932,10.1345981 L5.57743735,12.0336106 L6.47789999,13.9677347 L6.86997407,14.7937127 C6.95128211,14.9636535 7.08857016,15.1652572 7.28104201,15.3969315 L7.49187897,15.6385704 L7.7393282,15.8999025 L8.02321276,16.180574 L8.34335571,16.4802311 L8.69958013,16.79852 L9.09170908,17.1350869 L9.51956562,17.4895778 L9.98297281,17.861639 L10.4817537,18.2509166 L11.0157314,18.6570569 L11.6451243,19.1254706 L11.7010077,19.1720055 L11.7528542,19.2215852 L11.8240942,19.3066399 L11.8679271,19.3737837 L11.9293735,19.4958471 L11.9681619,19.5947717 L12.0242683,19.7751689 L12.0609813,19.9200913 L12.1162015,20.1801477 L12.1730277,20.4982357 L12.2540654,21.0258935 L12.3691757,21.8774604 L12.7112809,24.6686306 C12.7771903,25.2169685 12.3861046,25.7149142 11.8377668,25.7808235 C11.2894289,25.8467328 10.7914832,25.4556472 10.7255739,24.9073093 L10.4838726,22.9563896 L10.3174074,21.7126344 L10.2046199,20.9519269 L10.123675,20.4881461 L9.45311359,19.983096 L8.86452906,19.5280812 L8.31711229,19.0914969 C6.64859803,17.737741 5.59632175,16.6552219 5.13184329,15.7870655 L5.06583784,15.6569001 L4.53006232,14.5254605 L3.59815046,12.5166988 L2.51265735,10.1347382 L1.05261495,6.88518927 L0.827045541,6.37966743 C-0.250878139,4.04128581 -0.262322419,2.23057248 0.717860723,1.0580413 C1.49547166,0.12783446 2.84466254,-0.20923145 3.76981864,0.127497833 Z M28.4189129,1.77170326 C28.9317488,1.77170326 29.3544201,2.15774345 29.4121852,2.65508214 L29.4189129,2.77170326 L29.4189129,10.1032268 C29.4189129,10.2814798 29.342944,10.5692215 29.2039153,10.9392067 L29.0696058,11.2758427 L28.9062164,11.6489483 L28.7155536,12.054711 C28.681604,12.1248477 28.6465934,12.1961862 28.6105592,12.2686471 L28.3823737,12.7162463 C28.3423962,12.7928791 28.3014705,12.8704755 28.2596342,12.948956 L27.9979906,13.4298129 C27.9526625,13.5115121 27.9064992,13.5939366 27.8595381,13.6770068 L27.5685012,14.1825427 L27.2601268,14.6997654 L27.1000026,14.9615677 L27.1000026,14.9615677 L26.7690094,15.4891715 L26.4251951,16.01893 C26.3669246,16.1071909 26.3081952,16.1953826 26.2490446,16.2834259 L25.8893859,16.8092677 L25.5214224,17.3277323 C25.4595035,17.4133165 25.3973138,17.4984345 25.334891,17.5830068 L24.9578576,18.0832568 L24.7678074,18.3272792 L24.7678074,18.3272792 L24.545532,18.604154 L24.4183019,19.7004295 L24.1685753,21.9938858 L24.1066467,22.4320518 L24.0815073,22.5622127 C24.0318785,22.7865449 24.0035337,22.8746168 23.8439819,23.061096 C23.4849328,23.4807413 22.8536763,23.5298643 22.4340309,23.1708153 C22.0143856,22.8117662 21.9652626,22.1805097 22.3243117,21.7608643 L22.2667206,21.8240763 L22.1794891,21.9007287 C22.170078,21.9099678 22.1651745,21.9195281 22.1604952,21.9404454 L22.155,21.967 L22.184615,21.7410064 L22.531404,18.5868909 L22.5652491,18.3276625 L22.6048608,18.0787066 L22.6172683,18.0172411 C22.6572294,17.8325863 22.6823837,17.7428013 22.7781698,17.6110204 L22.8448007,17.5258175 C24.1600174,15.9361415 25.331017,14.1502457 26.2859858,12.3817861 C26.4411468,12.0944511 26.5865657,11.8146179 26.719927,11.5480335 L26.9698866,11.0342328 L27.1835762,10.5659795 L27.3080359,10.2733668 L27.4071605,10.0199402 C27.4116481,10.0125631 27.416015,10.0153255 27.417918,10.0529989 L27.4189129,2.77170326 C27.4189129,2.21941851 27.8666282,1.77170326 28.4189129,1.77170326 Z M23.4093957,3.54620382 C23.9616804,3.54620382 24.4093957,3.99391907 24.4093957,4.54620382 C24.4093957,5.09848857 23.9616804,5.54620382 23.4093957,5.54620382 C22.8571109,5.54620382 22.4093957,5.09848857 22.4093957,4.54620382 C22.4093957,3.99391907 22.8571109,3.54620382 23.4093957,3.54620382 Z" id="red-marianne"></path>
        </g>
    </g>
</svg>