<?xml version="1.0" encoding="UTF-8"?>
<svg width="80px" height="80px" viewBox="0 0 80 80" version="1.1" xmlns="http://www.w3.org/2000/svg" xmlns:xlink="http://www.w3.org/1999/xlink">
    <title>Carte grise</title>
    <g id="Carte-grise" stroke="none" stroke-width="1" fill="none" fill-rule="evenodd">
        <path d="M24.0518799,8 L24.168501,8.00672773 C24.6658397,8.06449284 25.0518799,8.48716416 25.0518799,9 C25.0518799,9.51283584 24.6658397,9.93550716 24.168501,9.99327227 L24.0518799,10 L17,10 L16.8237272,10.0050927 C15.3072462,10.0929596 14.0929596,11.3072462 14.0050927,12.8237272 L14,13 L14,38 L14,67 C14,68.5976809 15.24892,69.9036609 16.8237272,69.9949073 L17,70 L35,70 C35.5522847,70 36,70.4477153 36,71 C36,71.5128358 35.6139598,71.9355072 35.1166211,71.9932723 L35,72 L17,72 C14.3112453,72 12.1181819,69.8776933 12.0046195,67.2168896 L12,67 L12,13 L12.0046195,12.7831104 C12.1150274,10.1962179 14.191013,8.11832144 16.7771185,8.0048788 L17,8 L24.0518799,8 Z M42,70 C42.5522847,70 43,70.4477153 43,71 C43,71.5128358 42.6139598,71.9355072 42.1166211,71.9932723 L42,72 L38,72 C37.4477153,72 37,71.5522847 37,71 C37,70.4871642 37.3860402,70.0644928 37.8833789,70.0067277 L38,70 L42,70 Z M45,70 C45.5522847,70 46,70.4477153 46,71 C46,71.5522847 45.5522847,72 45,72 C44.4477153,72 44,71.5522847 44,71 C44,70.4477153 44.4477153,70 45,70 Z M35,58 C35.5522847,58 36,58.4477153 36,59 C36,59.5128358 35.6139598,59.9355072 35.1166211,59.9932723 L35,60 L19,60 C18.4477153,60 18,59.5522847 18,59 C18,58.4871642 18.3860402,58.0644928 18.8833789,58.0067277 L19,58 L35,58 Z M35,46 C35.5522847,46 36,46.4477153 36,47 C36,47.5128358 35.6139598,47.9355072 35.1166211,47.9932723 L35,48 L19,48 C18.4477153,48 18,47.5522847 18,47 C18,46.4871642 18.3860402,46.0644928 18.8833789,46.0067277 L19,46 L35,46 Z M19.6128994,30.2097046 L19.7071068,30.2928932 L21,31.585 L22.2928932,30.2928932 C22.6834175,29.9023689 23.3165825,29.9023689 23.7071068,30.2928932 C24.0675907,30.6533772 24.0953203,31.2206082 23.7902954,31.6128994 L23.7071068,31.7071068 L22.415,33 L23.7071068,34.2928932 C24.0976311,34.6834175 24.0976311,35.3165825 23.7071068,35.7071068 C23.3466228,36.0675907 22.7793918,36.0953203 22.3871006,35.7902954 L22.2928932,35.7071068 L21,34.415 L19.7071068,35.7071068 C19.3165825,36.0976311 18.6834175,36.0976311 18.2928932,35.7071068 C17.9324093,35.3466228 17.9046797,34.7793918 18.2097046,34.3871006 L18.2928932,34.2928932 L19.585,33 L18.2928932,31.7071068 C17.9023689,31.3165825 17.9023689,30.6834175 18.2928932,30.2928932 C18.6533772,29.9324093 19.2206082,29.9046797 19.6128994,30.2097046 Z M30.5114029,30.1403808 L30.6128994,30.2097046 L30.7071068,30.2928932 L32,31.585 L33.2928932,30.2928932 C33.6834175,29.9023689 34.3165825,29.9023689 34.7071068,30.2928932 C35.0675907,30.6533772 35.0953203,31.2206082 34.7902954,31.6128994 L34.7071068,31.7071068 L33.415,33 L34.7071068,34.2928932 C35.0976311,34.6834175 35.0976311,35.3165825 34.7071068,35.7071068 C34.3466228,36.0675907 33.7793918,36.0953203 33.3871006,35.7902954 L33.2928932,35.7071068 L32,34.415 L30.7071068,35.7071068 C30.3165825,36.0976311 29.6834175,36.0976311 29.2928932,35.7071068 C28.9324093,35.3466228 28.9046797,34.7793918 29.2097046,34.3871006 L29.2928932,34.2928932 L30.585,33 L29.2928932,31.7071068 C28.9023689,31.3165825 28.9023689,30.6834175 29.2928932,30.2928932 C29.6233369,29.9624496 30.1275055,29.9116121 30.5114029,30.1403808 Z M41.5114029,30.1403808 L41.6128994,30.2097046 L41.7071068,30.2928932 L43,31.585 L44.2928932,30.2928932 C44.6834175,29.9023689 45.3165825,29.9023689 45.7071068,30.2928932 C46.0675907,30.6533772 46.0953203,31.2206082 45.7902954,31.6128994 L45.7071068,31.7071068 L44.415,33 L45.7071068,34.2928932 C46.0976311,34.6834175 46.0976311,35.3165825 45.7071068,35.7071068 C45.3466228,36.0675907 44.7793918,36.0953203 44.3871006,35.7902954 L44.2928932,35.7071068 L43,34.415 L41.7071068,35.7071068 C41.3165825,36.0976311 40.6834175,36.0976311 40.2928932,35.7071068 C39.9324093,35.3466228 39.9046797,34.7793918 40.2097046,34.3871006 L40.2928932,34.2928932 L41.585,33 L40.2928932,31.7071068 C39.9023689,31.3165825 39.9023689,30.6834175 40.2928932,30.2928932 C40.6233369,29.9624496 41.1275055,29.9116121 41.5114029,30.1403808 Z M56,8 L56.2168896,8.00461951 C58.8037821,8.11502738 60.8816786,10.191013 60.9951212,12.7771185 L61,13 L61,26.146759 L60.9932723,26.2633802 C60.9355072,26.7607188 60.5128358,27.146759 60,27.146759 C59.4871642,27.146759 59.0644928,26.7607188 59.0067277,26.2633802 L59,26.146759 L59,13 L58.9949073,12.8237272 C58.9070404,11.3072462 57.6927538,10.0929596 56.1762728,10.0050927 L56,10 L33.9299304,10 L33.8133093,9.99327227 C33.3159706,9.93550716 32.9299304,9.51283584 32.9299304,9 C32.9299304,8.48716416 33.3159706,8.06449284 33.8133093,8.00672773 L33.9299304,8 L56,8 Z M30,17 C30.5522847,17 31,17.4477153 31,18 C31,18.5128358 30.6139598,18.9355072 30.1166211,18.9932723 L30,19 L19,19 C18.4477153,19 18,18.5522847 18,18 C18,17.4871642 18.3860402,17.0644928 18.8833789,17.0067277 L19,17 L30,17 Z M42,17 C42.5522847,17 43,17.4477153 43,18 C43,18.5128358 42.6139598,18.9355072 42.1166211,18.9932723 L42,19 L34,19 C33.4477153,19 33,18.5522847 33,18 C33,17.4871642 33.3860402,17.0644928 33.8833789,17.0067277 L34,17 L42,17 Z" id="blue-france" fill="#000091" fill-rule="nonzero"></path>
        <path d="M65,33 L65.1762728,33.0050927 C66.75108,33.0963391 68,34.4023191 68,36 L68,36 L68,51 L67.9949073,51.1762728 C67.9036609,52.75108 66.5976809,54 65,54 L65,54 L63,54 L63,58.2729575 L62.123,59.956 L63,61.6938972 L63,63.2703513 L62.122,64.994 L63,66.7205003 L63,68.4707766 L60.9311833,71.4531956 L60.8300293,71.5779591 L60.8002892,71.6087962 C60.7695065,71.6386046 60.7329151,71.6680444 60.6663853,71.7215714 C60.1719031,72.0745015 59.4849397,71.9597509 59.1320096,71.4652686 L59.1320096,71.4652686 L57,68.4781593 L57,54 L55,54 L54.8237272,53.9949073 C53.24892,53.9036609 52,52.5976809 52,51 L52,51 L52,36 L52.0050927,35.8237272 C52.0963391,34.24892 53.4023191,33 55,33 L55,33 L65,33 Z M61,54 L59,54 L59,67.839 L60.016,69.263 L61,67.845 L61,67.201 L60.1315945,65.4909828 L60.079309,65.370931 L60.0419829,65.2468516 C59.9822895,64.9955623 60.0123479,64.728179 60.1321319,64.4931285 L60.1321319,64.4931285 L61,62.791 L61,62.17 L60.1301275,60.4440859 L60.0779631,60.323114 L60.0409577,60.1981342 C59.9820999,59.9450796 60.0141417,59.6761934 60.1367576,59.4407703 L60.1367576,59.4407703 L61,57.784 L61,54 Z M39,54 C39.5522847,54 40,54.4477153 40,55 C40,55.5128358 39.6139598,55.9355072 39.1166211,55.9932723 L39,56 L19,56 C18.4477153,56 18,55.5522847 18,55 C18,54.4871642 18.3860402,54.0644928 18.8833789,54.0067277 L19,54 L39,54 Z M45,50 C45.5522847,50 46,50.4477153 46,51 C46,51.5128358 45.6139598,51.9355072 45.1166211,51.9932723 L45,52 L19,52 C18.4477153,52 18,51.5522847 18,51 C18,50.4871642 18.3860402,50.0644928 18.8833789,50.0067277 L19,50 L45,50 Z M65,35 L55,35 L54.8833789,35.0067277 C54.3860402,35.0644928 54,35.4871642 54,36 L54,36 L54,51 L54.0067277,51.1166211 C54.0644928,51.6139598 54.4871642,52 55,52 L55,52 L65,52 C65.5522847,52 66,51.5522847 66,51 L66,51 L66,36 L65.9932723,35.8833789 C65.9355072,35.3860402 65.5128358,35 65,35 L65,35 Z M64,49 C64.5522847,49 65,49.4477153 65,50 C65,50.5522847 64.5522847,51 64,51 C63.4477153,51 63,50.5522847 63,50 C63,49.4477153 63.4477153,49 64,49 Z M60,37 C62.209139,37 64,38.790861 64,41 L64,41 L64,43 L63.9951047,43.1996403 C63.8910789,45.3160315 62.1421954,47 60,47 C57.790861,47 56,45.209139 56,43 L56,43 L56,41 L56.0048953,40.8003597 C56.1089211,38.6839685 57.8578046,37 60,37 Z M62,43 L58,43 L58.0054857,43.1492623 C58.0818349,44.1841222 58.9456382,45 60,45 C61.1045695,45 62,44.1045695 62,43 L62,43 Z M60,39 C58.8954305,39 58,39.8954305 58,41 L58,41 L62,41 C62,39.8954305 61.1045695,39 60,39 Z M27,32 C27.5522847,32 28,32.4477153 28,33 C28,33.5128358 27.6139598,33.9355072 27.1166211,33.9932723 L27,34 L26,34 C25.4477153,34 25,33.5522847 25,33 C25,32.4871642 25.3860402,32.0644928 25.8833789,32.0067277 L26,32 L27,32 Z M38,32 C38.5522847,32 39,32.4477153 39,33 C39,33.5128358 38.6139598,33.9355072 38.1166211,33.9932723 L38,34 L37,34 C36.4477153,34 36,33.5522847 36,33 C36,32.4871642 36.3860402,32.0644928 36.8833789,32.0067277 L37,32 L38,32 Z M51,14 C53.209139,14 55,15.790861 55,18 C55,20.209139 53.209139,22 51,22 C48.790861,22 47,20.209139 47,18 C47,15.790861 48.790861,14 51,14 Z M51,16 C49.8954305,16 49,16.8954305 49,18 C49,19.1045695 49.8954305,20 51,20 C52.1045695,20 53,19.1045695 53,18 C53,16.8954305 52.1045695,16 51,16 Z" id="red-marianne" fill="#E1000F" fill-rule="nonzero"></path>
    </g>
</svg>