<?xml version="1.0" encoding="UTF-8"?>
<svg width="80px" height="80px" viewBox="0 0 80 80" version="1.1" xmlns="http://www.w3.org/2000/svg" xmlns:xlink="http://www.w3.org/1999/xlink">
    <title>Permis de conduire-3</title>
    <g id="Permis-de-conduire-3" stroke="none" stroke-width="1" fill="none" fill-rule="evenodd">
        <path d="M47,8 C49.6887547,8 51.8818181,10.1223067 51.9953805,12.7831104 L52,13 L52,33 C52,33.5522847 51.5522847,34 51,34 C50.4871642,34 50.0644928,33.6139598 50.0067277,33.1166211 L50,33 L50,13 C50,11.4023191 48.75108,10.0963391 47.1762728,10.0050927 L47,10 L13,10 C11.4023191,10 10.0963391,11.24892 10.0050927,12.8237272 L10,13 L10,63 C10,64.5976809 11.24892,65.9036609 12.8237272,65.9949073 L13,66 L17,66 C17.5522847,66 18,66.4477153 18,67 C18,67.5128358 17.6139598,67.9355072 17.1166211,67.9932723 L17,68 L13,68 C10.3112453,68 8.11818189,65.8776933 8.00461951,63.2168896 L8,63 L8,13 C8,10.3112453 10.1223067,8.11818189 12.7831104,8.00461951 L13,8 L47,8 Z M51,66 C51.5522847,66 52,66.4477153 52,67 C52,67.5128358 51.6139598,67.9355072 51.1166211,67.9932723 L51,68 L43,68 C42.4477153,68 42,67.5522847 42,67 C42,66.4871642 42.3860402,66.0644928 42.8833789,66.0067277 L43,66 L51,66 Z M56.2037357,48 C57.5479137,48 58.8317069,48.5410006 59.7743213,49.5004632 L59.9469948,49.6852363 L65.455,56 L67,56 C69.6887547,56 71.8818181,58.1223067 71.9953805,60.7831104 L72,61 L72,63 C72,65.7614237 69.7614237,68 67,68 C66.4477153,68 66,67.5522847 66,67 C66,66.4871642 66.3860402,66.0644928 66.8833789,66.0067277 L67,66 C68.5976809,66 69.9036609,64.75108 69.9949073,63.1762728 L70,63 L70,61 C70,59.4023191 68.75108,58.0963391 67.1762728,58.0050927 L67,58 L41,58 C40.4477153,58 40,57.5522847 40,57 C40,56.4871642 40.3860402,56.0644928 40.8833789,56.0067277 L41,56 L46.131,56 L46.1319847,53 C46.1319847,52.4477153 46.5797,52 47.1319847,52 C47.6842695,52 48.1319847,52.4477153 48.1319847,53 L48.131,56 L62.801,56 L58.4459637,51.0069085 C57.9204539,50.4157099 57.1847297,50.0579973 56.4006653,50.0064628 L56.2037357,50 L55.131,50 L55.1319847,53 C55.1319847,53.5522847 54.6842695,54 54.1319847,54 C53.5797,54 53.1319847,53.5522847 53.1319847,53 L53.131,50 L37,50 C34.3241314,50 32.6468865,52.2363264 31.9911513,57.1327366 L31.985,57.165 L31.9817998,57.1908981 L31.9773241,57.2127364 L31.975,57.219 L31.9534161,57.3022071 C31.9488795,57.3168942 31.9437718,57.3317961 31.9383268,57.3465346 C31.9322863,57.3627637 31.9259894,57.3785773 31.9193138,57.3941701 L31.9090984,57.4171613 L31.888602,57.4592727 L31.8644278,57.5030818 C31.8570968,57.5156512 31.8494995,57.5280463 31.8416436,57.5402592 C31.8295396,57.5592865 31.8169449,57.5774923 31.8037864,57.5952277 C31.7934227,57.6089964 31.7828101,57.6225592 31.7718616,57.6358347 C31.7658791,57.6432561 31.7595551,57.650697 31.7531274,57.6580398 L31.695667,57.7183656 C31.6877385,57.7260815 31.6800251,57.733302 31.6722019,57.7403975 C31.6263785,57.782012 31.5766134,57.819488 31.5235672,57.8521495 C31.51221,57.85901 31.5006446,57.8658124 31.4889411,57.8723835 C31.4683117,57.8841161 31.4469067,57.8951524 31.4250698,57.9054221 L31.4102595,57.9121325 L31.3958252,57.9184904 C31.3728096,57.9285481 31.3488851,57.9378112 31.3245364,57.946161 C31.3060847,57.9524556 31.2871502,57.9583496 31.2680082,57.9636829 C31.2531757,57.9677935 31.2383615,57.971538 31.2234199,57.9749478 C31.1988578,57.9806365 31.1738449,57.9853799 31.1485682,57.9891643 C31.1356239,57.9909726 31.1222005,57.9927011 31.1086966,57.9941608 L31.0625419,57.9982332 L31,58 C29.4023191,58 28.0963391,59.24892 28.0050927,60.8237272 L28,61 L28,63 C28,63.5522847 27.5522847,64 27,64 C26.4871642,64 26.0644928,63.6139598 26.0067277,63.1166211 L26,63 L26,61 C26,58.5363077 27.7818811,56.488796 30.12719,56.0759182 C30.9833938,50.9269767 33.1892419,48.1216232 36.7634569,48.003866 L37,48 L56.2037357,48 Z M31,44 C31.5522847,44 32,44.4477153 32,45 C32,45.5128358 31.6139598,45.9355072 31.1166211,45.9932723 L31,46 L15,46 C14.4477153,46 14,45.5522847 14,45 C14,44.4871642 14.3860402,44.0644928 14.8833789,44.0067277 L15,44 L31,44 Z M27,40 C27.5522847,40 28,40.4477153 28,41 C28,41.5128358 27.6139598,41.9355072 27.1166211,41.9932723 L27,42 L15,42 C14.4477153,42 14,41.5522847 14,41 C14,40.4871642 14.3860402,40.0644928 14.8833789,40.0067277 L15,40 L27,40 Z M51,36 C51.5522847,36 52,36.4477153 52,37 C52,37.5522847 51.5522847,38 51,38 C50.4477153,38 50,37.5522847 50,37 C50,36.4477153 50.4477153,36 51,36 Z M30,30 C30.5522847,30 31,30.4477153 31,31 C31,31.5522847 30.5522847,32 30,32 C29.4477153,32 29,31.5522847 29,31 C29,30.4477153 29.4477153,30 30,30 Z M25.0502525,27.9497475 C25.4407768,28.3402718 25.4407768,28.9734367 25.0502525,29.363961 C24.6597282,29.7544853 24.0265633,29.7544853 23.636039,29.363961 C23.2455147,28.9734367 23.2455147,28.3402718 23.636039,27.9497475 C24.0265633,27.5592232 24.6597282,27.5592232 25.0502525,27.9497475 Z M36.363961,27.9497475 C36.7544853,28.3402718 36.7544853,28.9734367 36.363961,29.363961 C35.9734367,29.7544853 35.3402718,29.7544853 34.9497475,29.363961 C34.5592232,28.9734367 34.5592232,28.3402718 34.9497475,27.9497475 C35.3402718,27.5592232 35.9734367,27.5592232 36.363961,27.9497475 Z M33,18 L33,20 L29,20 L29,22 L33,22 L33,24 L29,24 L29,28 L27,28 L27,18 L33,18 Z M38,22 C38.5522847,22 39,22.4477153 39,23 C39,23.5522847 38.5522847,24 38,24 C37.4477153,24 37,23.5522847 37,23 C37,22.4477153 37.4477153,22 38,22 Z M22,22 C22.5522847,22 23,22.4477153 23,23 C23,23.5522847 22.5522847,24 22,24 C21.4477153,24 21,23.5522847 21,23 C21,22.4477153 21.4477153,22 22,22 Z M36.363961,16.636039 C36.7544853,17.0265633 36.7544853,17.6597282 36.363961,18.0502525 C35.9734367,18.4407768 35.3402718,18.4407768 34.9497475,18.0502525 C34.5592232,17.6597282 34.5592232,17.0265633 34.9497475,16.636039 C35.3402718,16.2455147 35.9734367,16.2455147 36.363961,16.636039 Z M25.0502525,16.636039 C25.4407768,17.0265633 25.4407768,17.6597282 25.0502525,18.0502525 C24.6597282,18.4407768 24.0265633,18.4407768 23.636039,18.0502525 C23.2455147,17.6597282 23.2455147,17.0265633 23.636039,16.636039 C24.0265633,16.2455147 24.6597282,16.2455147 25.0502525,16.636039 Z M30,14 C30.5522847,14 31,14.4477153 31,15 C31,15.5522847 30.5522847,16 30,16 C29.4477153,16 29,15.5522847 29,15 C29,14.4477153 29.4477153,14 30,14 Z" id="blue-france" fill="#000091" fill-rule="nonzero"></path>
        <path d="M59,62 C61.7614237,62 64,64.2385763 64,67 C64,69.7614237 61.7614237,72 59,72 C56.2385763,72 54,69.7614237 54,67 C54,64.2385763 56.2385763,62 59,62 Z M59,64 C57.3431458,64 56,65.3431458 56,67 C56,68.6568542 57.3431458,70 59,70 C60.6568542,70 62,68.6568542 62,67 C62,65.3431458 60.6568542,64 59,64 Z M59,66 C59.5522847,66 60,66.4477153 60,67 C60,67.5522847 59.5522847,68 59,68 C58.4477153,68 58,67.5522847 58,67 C58,66.4477153 58.4477153,66 59,66 Z M35,62 C37.7614237,62 40,64.2385763 40,67 C40,69.7614237 37.7614237,72 35,72 C32.2385763,72 30,69.7614237 30,67 C30,64.2385763 32.2385763,62 35,62 Z M35,64 C33.3431458,64 32,65.3431458 32,67 C32,68.6568542 33.3431458,70 35,70 C36.6568542,70 38,68.6568542 38,67 C38,65.3431458 36.6568542,64 35,64 Z M35,66 C35.5522847,66 36,66.4477153 36,67 C36,67.5522847 35.5522847,68 35,68 C34.4477153,68 34,67.5522847 34,67 C34,66.4477153 34.4477153,66 35,66 Z M41,36 C41.5522847,36 42,36.4477153 42,37 C42,37.5128358 41.6139598,37.9355072 41.1166211,37.9932723 L41,38 L15,38 C14.4477153,38 14,37.5522847 14,37 C14,36.4871642 14.3860402,36.0644928 14.8833789,36.0067277 L15,36 L41,36 Z M24,48 C24.5522847,48 25,48.4477153 25,49 C25,49.5128358 24.6139598,49.9355072 24.1166211,49.9932723 L24,50 L15,50 C14.4477153,50 14,49.5522847 14,49 C14,48.4871642 14.3860402,48.0644928 14.8833789,48.0067277 L15,48 L24,48 Z" id="red-marianne" fill="#E1000F" fill-rule="nonzero"></path>
    </g>
</svg>